<svg width="24" height="24" viewBox="0 0 24 24" fill="none" xmlns="http://www.w3.org/2000/svg">
<path d="M11.9956 19.1017C11.754 19.1017 11.5524 19.0199 11.3908 18.8562C11.2292 18.6925 11.1484 18.4905 11.1484 18.2501V12.8517H5.75C5.5096 12.8517 5.30756 12.7694 5.14388 12.6049C4.98021 12.4404 4.89838 12.2373 4.89838 11.9957C4.89838 11.754 4.98021 11.5524 5.14388 11.3908C5.30756 11.2292 5.5096 11.1484 5.75 11.1484H11.1484V5.75006C11.1484 5.50966 11.2306 5.30762 11.3952 5.14394C11.5597 4.98027 11.7627 4.89844 12.0044 4.89844C12.246 4.89844 12.4477 4.98027 12.6093 5.14394C12.7708 5.30762 12.8516 5.50966 12.8516 5.75006V11.1484H18.25C18.4904 11.1484 18.6924 11.2307 18.8561 11.3952C19.0198 11.5597 19.1016 11.7628 19.1016 12.0044C19.1016 12.2461 19.0198 12.4477 18.8561 12.6093C18.6924 12.7709 18.4904 12.8517 18.25 12.8517H12.8516V18.2501C12.8516 18.4905 12.7694 18.6925 12.6049 18.8562C12.4403 19.0199 12.2373 19.1017 11.9956 19.1017Z" fill="black"/>
</svg>
