<svg width="24" height="24" viewBox="0 0 24 24" fill="none" xmlns="http://www.w3.org/2000/svg">
<path d="M9.06685 19.1494C8.6683 19.1494 8.3054 19.0472 7.97815 18.8429C7.6509 18.6386 7.37032 18.3752 7.1364 18.0527L3.53533 12.9945C3.32409 12.696 3.21948 12.3654 3.22148 12.0029C3.22346 11.6404 3.32808 11.3079 3.53533 11.0054L7.1364 5.94721C7.37032 5.61884 7.6509 5.35297 7.97815 5.14958C8.3054 4.94618 8.6683 4.84448 9.06685 4.84448H19.4832C19.9575 4.84448 20.3609 5.01078 20.6935 5.34338C21.0261 5.67598 21.1924 6.07943 21.1924 6.55373V17.4461C21.1924 17.9188 21.0261 18.3208 20.6935 18.6523C20.3609 18.9837 19.9575 19.1494 19.4832 19.1494H9.06685ZM10.6524 15.3239C10.8152 15.4858 11.0073 15.5668 11.2287 15.5668C11.4502 15.5668 11.6419 15.4858 11.8038 15.3239L14.006 13.1277L16.2272 15.3489C16.3902 15.5108 16.5784 15.5918 16.7918 15.5918C17.0052 15.5918 17.1919 15.5108 17.3519 15.3489C17.5119 15.1869 17.5919 14.995 17.5919 14.7733C17.5919 14.5515 17.5129 14.3591 17.3549 14.1961L15.1337 11.9999L17.3299 9.80373C17.4879 9.64072 17.5669 9.4525 17.5669 9.23908C17.5669 9.02567 17.4869 8.83797 17.3269 8.67601C17.1669 8.51406 16.9761 8.43308 16.7543 8.43308C16.5326 8.43308 16.3402 8.51406 16.1772 8.67601L14.006 10.8722L11.7788 8.65101C11.6158 8.48906 11.4276 8.41225 11.2142 8.42058C11.0007 8.42892 10.813 8.50616 10.6511 8.65231C10.4891 8.81511 10.4081 9.00623 10.4081 9.22568C10.4081 9.44512 10.4891 9.63581 10.6511 9.79776L12.8783 11.9999L10.6511 14.1961C10.5058 14.3591 10.4331 14.5515 10.4331 14.7733C10.4331 14.995 10.5062 15.1786 10.6524 15.3239Z" fill="black"/>
</svg>
