<svg width="20" height="20" viewBox="0 0 20 20" fill="none" xmlns="http://www.w3.org/2000/svg">
<path d="M5.39765 17.6245C5.01296 17.6245 4.67939 17.4838 4.39694 17.2023C4.1145 16.9209 3.97328 16.5885 3.97328 16.2051V4.41482H3.74411C3.54378 4.41482 3.37542 4.34628 3.23903 4.20918C3.10263 4.07208 3.03442 3.90285 3.03442 3.70147C3.03442 3.50011 3.10263 3.3321 3.23903 3.19743C3.37542 3.06276 3.54378 2.99543 3.74411 2.99543H7.1703C7.1703 2.79164 7.2385 2.62157 7.3749 2.48524C7.51129 2.34892 7.67965 2.28076 7.87999 2.28076H12.12C12.3199 2.28076 12.489 2.34989 12.6273 2.48816C12.7656 2.62642 12.8347 2.79551 12.8347 2.99543H16.2559C16.4562 2.99543 16.6246 3.06398 16.761 3.2011C16.8974 3.33819 16.9656 3.50742 16.9656 3.70878C16.9656 3.91016 16.8974 4.07817 16.761 4.21282C16.6246 4.34749 16.4562 4.41482 16.2559 4.41482H16.0267V16.2051C16.0267 16.5885 15.8855 16.9209 15.6031 17.2023C15.3206 17.4838 14.9871 17.6245 14.6024 17.6245H5.39765ZM7.58107 13.7885C7.58107 13.9746 7.64579 14.1319 7.77524 14.2605C7.90467 14.389 8.0631 14.4533 8.25055 14.4533C8.43799 14.4533 8.59572 14.389 8.72374 14.2605C8.85177 14.1319 8.91578 13.9746 8.91578 13.7885V6.81066C8.91578 6.62452 8.85023 6.46634 8.71913 6.33614C8.58804 6.20593 8.42876 6.14082 8.24132 6.14082C8.05388 6.14082 7.89697 6.20593 7.77061 6.33614C7.64425 6.46634 7.58107 6.62452 7.58107 6.81066V13.7885ZM11.0842 13.7885C11.0842 13.9746 11.1498 14.1319 11.2809 14.2605C11.412 14.389 11.5713 14.4533 11.7587 14.4533C11.9461 14.4533 12.1039 14.389 12.2319 14.2605C12.3599 14.1319 12.4239 13.9746 12.4239 13.7885V6.81066C12.4239 6.62452 12.3589 6.46634 12.2288 6.33614C12.0987 6.20593 11.9394 6.14082 11.7509 6.14082C11.5625 6.14082 11.4043 6.20593 11.2763 6.33614C11.1483 6.46634 11.0842 6.62452 11.0842 6.81066V13.7885Z" fill="black"/>
</svg>
