<svg width="20" height="20" viewBox="0 0 20 20" fill="none" xmlns="http://www.w3.org/2000/svg">
<path d="M7.875 14.7097C7.78171 14.7097 7.69453 14.6933 7.61346 14.6605C7.53239 14.6278 7.4538 14.5734 7.37771 14.4973L3.60687 10.7264C3.46528 10.5848 3.39448 10.4121 3.39448 10.2083C3.39448 10.0045 3.46528 9.8318 3.60687 9.69018C3.74848 9.54859 3.91508 9.47779 4.10667 9.47779C4.29823 9.47779 4.46649 9.54859 4.61142 9.69018L7.875 12.9538L15.3727 5.46102C15.5143 5.31942 15.6836 5.24779 15.8804 5.24612C16.0773 5.24447 16.2465 5.3161 16.3881 5.46102C16.5297 5.60263 16.6005 5.7727 16.6005 5.97123C16.6005 6.16974 16.5297 6.3398 16.3881 6.48141L8.37229 14.4973C8.29619 14.5734 8.21761 14.6278 8.13654 14.6605C8.05547 14.6933 7.96829 14.7097 7.875 14.7097Z" fill="black"/>
</svg>
