<svg width="26" height="26" viewBox="0 0 26 26" fill="none" xmlns="http://www.w3.org/2000/svg">
<path d="M10.2375 19.1227C10.1162 19.1227 10.0029 19.1014 9.8975 19.0588C9.79211 19.0163 9.68995 18.9455 9.59102 18.8466L4.68894 13.9445C4.50486 13.7604 4.41282 13.5359 4.41282 13.2709C4.41282 13.006 4.50486 12.7815 4.68894 12.5974C4.87303 12.4133 5.08961 12.3213 5.33867 12.3213C5.58771 12.3213 5.80643 12.4133 5.99484 12.5974L10.2375 16.84L19.9845 7.09947C20.1686 6.91539 20.3886 6.82227 20.6446 6.8201C20.9005 6.81796 21.1205 6.91108 21.3046 7.09947C21.4887 7.28356 21.5807 7.50465 21.5807 7.76274C21.5807 8.02081 21.4887 8.24189 21.3046 8.42598L10.884 18.8466C10.7851 18.9455 10.6829 19.0163 10.5775 19.0588C10.4721 19.1014 10.3588 19.1227 10.2375 19.1227Z" fill="black"/>
</svg>
