<svg id="visual" viewBox="0 0 900 600" width="900" height="600" xmlns="http://www.w3.org/2000/svg" xmlns:xlink="http://www.w3.org/1999/xlink" version="1.1"><rect x="0" y="0" width="900" height="600" fill="#ffffff"></rect><path d="M0 233L21.5 227.7C43 222.3 86 211.7 128.8 219.2C171.7 226.7 214.3 252.3 257.2 275C300 297.7 343 317.3 385.8 324C428.7 330.7 471.3 324.3 514.2 322.7C557 321 600 324 642.8 312.2C685.7 300.3 728.3 273.7 771.2 271.3C814 269 857 291 878.5 302L900 313L900 601L878.5 601C857 601 814 601 771.2 601C728.3 601 685.7 601 642.8 601C600 601 557 601 514.2 601C471.3 601 428.7 601 385.8 601C343 601 300 601 257.2 601C214.3 601 171.7 601 128.8 601C86 601 43 601 21.5 601L0 601Z" fill="#fdd0cd"></path><path d="M0 333L21.5 335.7C43 338.3 86 343.7 128.8 345.8C171.7 348 214.3 347 257.2 337.8C300 328.7 343 311.3 385.8 302.3C428.7 293.3 471.3 292.7 514.2 299.2C557 305.7 600 319.3 642.8 331.3C685.7 343.3 728.3 353.7 771.2 357.5C814 361.3 857 358.7 878.5 357.3L900 356L900 601L878.5 601C857 601 814 601 771.2 601C728.3 601 685.7 601 642.8 601C600 601 557 601 514.2 601C471.3 601 428.7 601 385.8 601C343 601 300 601 257.2 601C214.3 601 171.7 601 128.8 601C86 601 43 601 21.5 601L0 601Z" fill="#fdaeaa"></path><path d="M0 359L21.5 369C43 379 86 399 128.8 409.2C171.7 419.3 214.3 419.7 257.2 416.3C300 413 343 406 385.8 397C428.7 388 471.3 377 514.2 376.8C557 376.7 600 387.3 642.8 401.8C685.7 416.3 728.3 434.7 771.2 429.8C814 425 857 397 878.5 383L900 369L900 601L878.5 601C857 601 814 601 771.2 601C728.3 601 685.7 601 642.8 601C600 601 557 601 514.2 601C471.3 601 428.7 601 385.8 601C343 601 300 601 257.2 601C214.3 601 171.7 601 128.8 601C86 601 43 601 21.5 601L0 601Z" fill="#f98c88"></path><path d="M0 430L21.5 437C43 444 86 458 128.8 456.3C171.7 454.7 214.3 437.3 257.2 439.7C300 442 343 464 385.8 475.7C428.7 487.3 471.3 488.7 514.2 491.8C557 495 600 500 642.8 489.3C685.7 478.7 728.3 452.3 771.2 448.3C814 444.3 857 462.7 878.5 471.8L900 481L900 601L878.5 601C857 601 814 601 771.2 601C728.3 601 685.7 601 642.8 601C600 601 557 601 514.2 601C471.3 601 428.7 601 385.8 601C343 601 300 601 257.2 601C214.3 601 171.7 601 128.8 601C86 601 43 601 21.5 601L0 601Z" fill="#f26768"></path><path d="M0 537L21.5 528C43 519 86 501 128.8 493C171.7 485 214.3 487 257.2 496.2C300 505.3 343 521.7 385.8 527C428.7 532.3 471.3 526.7 514.2 523.7C557 520.7 600 520.3 642.8 520.2C685.7 520 728.3 520 771.2 521.2C814 522.3 857 524.7 878.5 525.8L900 527L900 601L878.5 601C857 601 814 601 771.2 601C728.3 601 685.7 601 642.8 601C600 601 557 601 514.2 601C471.3 601 428.7 601 385.8 601C343 601 300 601 257.2 601C214.3 601 171.7 601 128.8 601C86 601 43 601 21.5 601L0 601Z" fill="#e83949"></path></svg>